<svg xmlns="http://www.w3.org/2000/svg" viewBox="0 0 192 192"><defs><linearGradient id="bg" x1="0" y1="0" x2="0" y2="1"><stop stop-color="#fff6e0"/><stop offset="1" stop-color="#d5a16c"/></linearGradient><filter id="s"><feDropShadow dx="0" dy="5" stdDeviation="2" flood-opacity=".35"/></filter></defs><rect width="192" height="192" rx="28" fill="url(#bg)"/><ellipse cx="96" cy="160" rx="60" ry="12" fill="#1c0d08" opacity=".25"/><g filter="url(#s)"><path d="M50 68c-28-20-38-41-23-54 16-13 35 9 41 34M142 68c28-20 38-41 23-54-16-13-35 9-41 34" fill="#f2d6a4" stroke="#4b2d1c" stroke-width="6"/><path d="M52 54c9-24 28-34 44-34s35 10 44 34v37H52z" fill="#22252b" stroke="#4b2d1c" stroke-width="6"/><path d="M66 45h60l-9 21H75z" fill="#3a3f48"/><circle cx="96" cy="48" r="7" fill="#ffca28" stroke="#4b2d1c" stroke-width="3"/><path d="M43 92c0-31 23-54 53-54s53 23 53 54c0 38-22 62-53 62s-53-24-53-62z" fill="#744323" stroke="#4b2d1c" stroke-width="6"/><path d="M54 88c-15-11-20-28-9-37 12-9 27 6 27 22M138 88c15-11 20-28 9-37-12-9-27 6-27 22" fill="#8b5530" stroke="#4b2d1c" stroke-width="5"/><path d="M70 89c7-9 18-9 25-1M116 88c8-8 18-8 25 1" fill="none" stroke="#120905" stroke-width="7" stroke-linecap="round"/><circle cx="76" cy="101" r="6" fill="#120905"/><circle cx="118" cy="101" r="6" fill="#120905"/><ellipse cx="97" cy="119" rx="28" ry="18" fill="#c9854d" stroke="#4b2d1c" stroke-width="5"/><circle cx="88" cy="119" r="4" fill="#32180d"/><circle cx="106" cy="119" r="4" fill="#32180d"/><path d="M63 63l-30-10v75l30-12z" fill="#c82721" stroke="#4b2d1c" stroke-width="5"/><path d="M129 63l30-10v75l-30-12z" fill="#c82721" stroke="#4b2d1c" stroke-width="5"/><path d="M37 133h118v18H37z" rx="8" fill="#2a2d33" stroke="#4b2d1c" stroke-width="5"/></g></svg>