<svg xmlns="http://www.w3.org/2000/svg" viewBox="0 0 192 192"><defs><linearGradient id="bg" x1="0" y1="0" x2="0" y2="1"><stop stop-color="#fff6cf"/><stop offset="1" stop-color="#ffe08a"/></linearGradient><filter id="s"><feDropShadow dx="0" dy="5" stdDeviation="2" flood-opacity=".32"/></filter></defs><rect width="192" height="192" rx="28" fill="url(#bg)"/><ellipse cx="96" cy="157" rx="55" ry="12" fill="#7b4217" opacity=".25"/><g filter="url(#s)"><path d="M78 55 87 26l11 23 18-25 7 29 25-8-13 27H63L51 45z" fill="#ffca28" stroke="#4b2d1c" stroke-width="5" stroke-linejoin="round"/><circle cx="86" cy="50" r="5" fill="#e74b36"/><circle cx="116" cy="49" r="5" fill="#e74b36"/><path d="M47 87c0-35 25-59 52-59s51 25 51 59c0 43-20 70-52 70S47 129 47 87z" fill="#ffe46b" stroke="#4b2d1c" stroke-width="6"/><path d="M55 96c10 11 20 16 43 16 24 0 36-6 45-17-5 38-22 62-45 62s-38-22-43-61z" fill="#fff2b8"/><path d="M75 81c7-9 18-9 25-1M117 80c8-8 18-8 25 1" fill="none" stroke="#2c1a10" stroke-width="7" stroke-linecap="round"/><circle cx="78" cy="96" r="6" fill="#2c1a10"/><circle cx="121" cy="96" r="6" fill="#2c1a10"/><path d="M96 104l15 8-15 11-15-11z" fill="#ff8b00" stroke="#4b2d1c" stroke-width="4"/><path d="M150 91c21 5 27 19 18 30-8 10-20 4-29-12" fill="#ffe46b" stroke="#4b2d1c" stroke-width="6"/><path d="M43 92c-20 5-26 20-17 30 8 9 19 2 28-13" fill="#ffe46b" stroke="#4b2d1c" stroke-width="6"/><path d="M70 157c-7 10-4 15 5 10M123 157c7 10 4 15-5 10" stroke="#4b2d1c" stroke-width="6" stroke-linecap="round"/></g></svg>