<svg xmlns="http://www.w3.org/2000/svg" viewBox="0 0 192 192"><defs><linearGradient id="bg" x1="0" y1="0" x2="0" y2="1"><stop stop-color="#fff1f5"/><stop offset="1" stop-color="#ffd0df"/></linearGradient><filter id="s"><feDropShadow dx="0" dy="5" stdDeviation="2" flood-opacity=".32"/></filter></defs><rect width="192" height="192" rx="28" fill="url(#bg)"/><ellipse cx="96" cy="160" rx="58" ry="12" fill="#7b4217" opacity=".25"/><g filter="url(#s)"><path d="M74 52 83 24l11 21 18-23 8 29 23-8-12 26H61L50 43z" fill="#ffca28" stroke="#4b2d1c" stroke-width="5" stroke-linejoin="round"/><circle cx="92" cy="47" r="5" fill="#e74b36"/><path d="M42 88c0-33 23-57 54-57s54 24 54 57c0 38-24 63-54 63s-54-25-54-63z" fill="#ff9eb8" stroke="#4b2d1c" stroke-width="6"/><path d="M50 92c-18-18-19-34-5-42 13-8 29 5 27 23" fill="#ffb2c7" stroke="#4b2d1c" stroke-width="6"/><path d="M142 92c18-18 19-34 5-42-13-8-29 5-27 23" fill="#ffb2c7" stroke="#4b2d1c" stroke-width="6"/><circle cx="77" cy="88" r="6" fill="#2c1a10"/><circle cx="115" cy="88" r="6" fill="#2c1a10"/><ellipse cx="96" cy="108" rx="25" ry="17" fill="#ff759a" stroke="#4b2d1c" stroke-width="5"/><circle cx="88" cy="108" r="4" fill="#4b2d1c"/><circle cx="104" cy="108" r="4" fill="#4b2d1c"/><path d="M72 132c14 10 34 11 50 0" fill="none" stroke="#4b2d1c" stroke-width="5" stroke-linecap="round"/><path d="M49 113c-9 22-7 41 11 47 11 4 20-3 18-18M143 113c9 22 7 41-11 47-11 4-20-3-18-18" fill="#e23d36" stroke="#4b2d1c" stroke-width="5"/><path d="M132 94l25-13 6 63-31-6z" fill="#c62f29" stroke="#4b2d1c" stroke-width="5"/><path d="M60 94 35 81l-6 63 31-6z" fill="#c62f29" stroke="#4b2d1c" stroke-width="5"/></g></svg>