<svg xmlns="http://www.w3.org/2000/svg" viewBox="0 0 192 192"><defs><linearGradient id="bg" x1="0" y1="0" x2="0" y2="1"><stop stop-color="#5b2ea0"/><stop offset="1" stop-color="#15071f"/></linearGradient><filter id="s"><feDropShadow dx="0" dy="5" stdDeviation="2" flood-opacity=".45"/></filter></defs><rect width="192" height="192" rx="28" fill="url(#bg)"/><path d="M0 150c34-24 55-15 86-34 32-20 62-42 106-20v96H0z" fill="#23112f" opacity=".75"/><ellipse cx="96" cy="160" rx="60" ry="12" fill="#000" opacity=".35"/><g filter="url(#s)"><path d="M69 45 78 16l12 21 18-24 8 30 24-9-12 26H58L46 34z" fill="#ffca28" stroke="#2a130b" stroke-width="5" stroke-linejoin="round"/><circle cx="91" cy="40" r="5" fill="#e74b36"/><path d="M42 81c0-27 22-48 54-48s54 21 54 48c0 43-24 74-54 74s-54-31-54-74z" fill="#ffd7b0" stroke="#2a130b" stroke-width="6"/><path d="M58 73c11-16 68-16 78 0v-26c-22-21-58-20-78 0z" fill="#111"/><path d="M68 88h24c1 12-6 19-14 19s-12-7-10-19zM101 88h24c2 12-4 19-10 19-9 0-15-7-14-19z" fill="#111"/><path d="M70 84l22 0M102 84l22 0" stroke="#ffca28" stroke-width="4"/><path d="M77 121c12 8 26 8 38 0" fill="none" stroke="#2a130b" stroke-width="5" stroke-linecap="round"/><path d="M42 94c-28 16-35 43-23 55 15 15 30-8 44-30M150 94c28 16 35 43 23 55-15 15-30-8-44-30" fill="#6f2ca0" stroke="#2a130b" stroke-width="5"/><rect x="24" y="61" width="44" height="57" rx="10" fill="#ffca28" stroke="#2a130b" stroke-width="5"/><rect x="34" y="72" width="24" height="14" rx="4" fill="#70521b"/><g fill="#2a130b"><circle cx="36" cy="95" r="4"/><circle cx="47" cy="95" r="4"/><circle cx="58" cy="95" r="4"/><circle cx="36" cy="107" r="4"/><circle cx="47" cy="107" r="4"/><circle cx="58" cy="107" r="4"/></g><path d="M132 62h34v66h-34z" rx="6" fill="#fff8e8" stroke="#2a130b" stroke-width="5"/><path d="M139 80h20M139 94h20M139 108h16" stroke="#d9480f" stroke-width="4"/><path d="M61 153h70v20H61z" fill="#111" stroke="#2a130b" stroke-width="5"/></g></svg>