<svg xmlns="http://www.w3.org/2000/svg" viewBox="0 0 320 220"><defs><radialGradient id="bg" cx="50%" cy="45%" r="70%"><stop stop-color="#6e31b8"/><stop offset="1" stop-color="#17051f"/></radialGradient><linearGradient id="gold" x1="0" y1="0" x2="0" y2="1"><stop stop-color="#ffe36a"/><stop offset="1" stop-color="#ff8b00"/></linearGradient></defs><rect width="320" height="220" rx="24" fill="url(#bg)"/><circle cx="250" cy="52" r="35" fill="#a752ff" opacity=".45"/><g transform="translate(103 46)"><ellipse cx="58" cy="143" rx="70" ry="18" fill="#0005"/><rect x="13" y="50" width="90" height="98" rx="24" fill="#2a1a20" stroke="#3b2214" stroke-width="8"/><path d="M5 58C-20 30-10 10 25 38M112 58c25-28 15-48-20-20" stroke="#ffd36a" stroke-width="14" fill="none" stroke-linecap="round"/><path d="M5 35l16-33 18 33 19-35 20 35 21-33 16 33z" fill="url(#gold)" stroke="#3b2214" stroke-width="7"/><circle cx="38" cy="85" r="8" fill="#ffec5a"/><circle cx="78" cy="85" r="8" fill="#ffec5a"/><path d="M41 113q18 12 36 0" stroke="#fff" stroke-width="7" fill="none" stroke-linecap="round"/><rect x="78" y="40" width="49" height="69" rx="9" fill="#ffd23b" stroke="#3b2214" stroke-width="6"/><circle cx="102" cy="92" r="5" fill="#3b2214"/><rect x="-35" y="86" width="42" height="56" rx="7" fill="#fff7dd" stroke="#3b2214" stroke-width="5"/><path d="M-28 102h28M-28 116h22M-28 130h26" stroke="#a33" stroke-width="4"/></g><text x="18" y="36" font-size="28" font-weight="900" fill="#fff" stroke="#16051f" stroke-width="6" paint-order="stroke">구매대마왕</text><text x="80" y="196" font-size="25" font-weight="900" fill="#fff" stroke="#301044" stroke-width="6" paint-order="stroke">시세를 지배하는 최종 보스</text></svg>