<svg xmlns="http://www.w3.org/2000/svg" viewBox="0 0 640 360"><defs><linearGradient id="sky" x1="0" y1="0" x2="0" y2="1"><stop stop-color="#63c9ff"/><stop offset="1" stop-color="#c7f6a2"/></linearGradient><linearGradient id="gold" x1="0" y1="0" x2="0" y2="1"><stop stop-color="#fff06a"/><stop offset="1" stop-color="#ff9a16"/></linearGradient></defs><rect width="640" height="360" rx="28" fill="url(#sky)"/><circle cx="560" cy="58" r="38" fill="#fff6a0" opacity=".8"/><path d="M0 250c120-70 210-50 320-90 120-45 210 0 320-52v252H0z" fill="#6fc45a"/><path d="M52 204h120v76H52z" fill="#f5d38e" stroke="#563019" stroke-width="8"/><path d="M38 204l76-52 76 52z" fill="#e35c34" stroke="#563019" stroke-width="8"/><text x="82" y="238" font-size="28" font-weight="900" fill="#c33">애마트</text><g transform="translate(257 112)"><ellipse cx="62" cy="185" rx="62" ry="18" fill="#0004"/><rect x="22" y="88" width="82" height="104" rx="26" fill="#222" stroke="#33170c" stroke-width="8"/><circle cx="63" cy="67" r="44" fill="#ffd4a5" stroke="#33170c" stroke-width="8"/><path d="M18 52q45-48 90 0v22H18z" fill="#fff" stroke="#33170c" stroke-width="8"/><text x="49" y="72" font-size="34" font-weight="900" fill="#d7352a">愛</text><circle cx="48" cy="68" r="5" fill="#1b120d"/><circle cx="78" cy="68" r="5" fill="#1b120d"/><path d="M49 91q14 12 31 0" stroke="#d95543" stroke-width="8" fill="none" stroke-linecap="round"/><rect x="70" y="108" width="70" height="86" rx="11" fill="#303844" stroke="#111" stroke-width="7"/><circle cx="98" cy="182" r="7" fill="#fff"/></g><g transform="translate(73 256)"><ellipse cx="32" cy="47" rx="37" ry="12" fill="#0003"/><ellipse cx="32" cy="28" rx="30" ry="28" fill="#fff" stroke="#33170c" stroke-width="6"/><path d="M52 29l24 10-24 10z" fill="#ff7a1c"/><path d="M28 3l11-20 9 20z" fill="#e43d2a"/><circle cx="24" cy="25" r="4"/><circle cx="40" cy="25" r="4"/></g><g transform="translate(150 267)"><ellipse cx="35" cy="42" rx="39" ry="12" fill="#0003"/><ellipse cx="35" cy="25" rx="34" ry="26" fill="#ff9fb2" stroke="#33170c" stroke-width="6"/><ellipse cx="35" cy="29" rx="13" ry="9" fill="#ff7990" stroke="#33170c" stroke-width="4"/><circle cx="22" cy="20" r="4"/><circle cx="48" cy="20" r="4"/></g><g transform="translate(460 240)"><ellipse cx="54" cy="65" rx="58" ry="16" fill="#0003"/><ellipse cx="54" cy="36" rx="48" ry="36" fill="#b06b2d" stroke="#33170c" stroke-width="7"/><path d="M12 22C-5 0 3-20 25 8M94 22c17-22 9-42-13-14" stroke="#eee" stroke-width="12" fill="none"/><circle cx="38" cy="32" r="5"/><circle cx="70" cy="32" r="5"/><ellipse cx="54" cy="48" rx="16" ry="10" fill="#e8a064"/></g><text x="34" y="86" font-size="54" font-weight="1000" fill="#fff" stroke="#3b2214" stroke-width="10" paint-order="stroke">축산구매</text><text x="34" y="145" font-size="68" font-weight="1000" fill="url(#gold)" stroke="#3b2214" stroke-width="12" paint-order="stroke">서바이벌!</text></svg>