<svg xmlns="http://www.w3.org/2000/svg" viewBox="0 0 320 220"><rect width="320" height="220" rx="24" fill="#9fe8ff"/><path d="M0 130c75-45 160-20 320-70v160H0z" fill="#72c65a"/><path d="M25 120h92v56H25z" fill="#f3d184" stroke="#442414" stroke-width="7"/><path d="M17 120l54-38 54 38z" fill="#de6a36" stroke="#442414" stroke-width="7"/><g transform="translate(166 104)"><ellipse cx="43" cy="73" rx="72" ry="16" fill="#0003"/><ellipse cx="36" cy="38" rx="32" ry="30" fill="#fff" stroke="#442414" stroke-width="6"/><path d="M58 38l23 10-23 10z" fill="#ff8022"/><path d="M32 9l9-19 10 19z" fill="#e6422f"/><circle cx="27" cy="34" r="4"/><circle cx="45" cy="34" r="4"/><ellipse cx="96" cy="52" rx="31" ry="26" fill="#ffd84f" stroke="#442414" stroke-width="6"/><path d="M117 52l19 8-19 8z" fill="#ff8022"/><circle cx="87" cy="49" r="4"/><circle cx="102" cy="49" r="4"/></g><text x="18" y="38" font-size="28" font-weight="900" fill="#fff" stroke="#1d4764" stroke-width="6" paint-order="stroke">농장출하</text></svg>