<svg xmlns="http://www.w3.org/2000/svg" viewBox="0 0 320 220"><defs><linearGradient id="bg" x1="0" y1="0" x2="0" y2="1"><stop stop-color="#ffe29a"/><stop offset="1" stop-color="#ff9d2d"/></linearGradient></defs><rect width="320" height="220" rx="24" fill="url(#bg)"/><path d="M0 144h320v76H0z" fill="#7d4425"/><rect x="42" y="115" width="236" height="61" rx="13" fill="#3d2014" stroke="#fff0b8" stroke-width="8"/><g transform="translate(48 60)"><circle cx="34" cy="34" r="28" fill="#ffd2a2" stroke="#3b2214" stroke-width="6"/><path d="M15 23q20-18 39 0" fill="#222"/><circle cx="25" cy="35" r="4"/><circle cx="43" cy="35" r="4"/><path d="M27 49q10 7 18 0" stroke="#e45b4a" stroke-width="6" fill="none" stroke-linecap="round"/></g><g transform="translate(130 58)"><circle cx="34" cy="34" r="28" fill="#ffd2a2" stroke="#3b2214" stroke-width="6"/><path d="M12 20q24-20 45 4" fill="#6b3a20"/><circle cx="25" cy="35" r="4"/><circle cx="43" cy="35" r="4"/><path d="M27 49q10 7 18 0" stroke="#e45b4a" stroke-width="6" fill="none" stroke-linecap="round"/></g><g transform="translate(210 62)"><circle cx="30" cy="30" r="26" fill="#ffd2a2" stroke="#3b2214" stroke-width="6"/><rect x="10" y="15" width="40" height="13" rx="6" fill="#111"/><circle cx="21" cy="34" r="3"/><circle cx="39" cy="34" r="3"/></g><g transform="translate(71 129)"><rect width="42" height="32" rx="8" fill="#ff8b8b" stroke="#fff" stroke-width="4"/><path d="M8 20h26" stroke="#b5222d" stroke-width="4"/></g><g transform="translate(141 129)"><rect width="42" height="32" rx="8" fill="#ff8b8b" stroke="#fff" stroke-width="4"/><path d="M8 20h26" stroke="#b5222d" stroke-width="4"/></g><text x="18" y="36" font-size="28" font-weight="900" fill="#fff" stroke="#63230e" stroke-width="6" paint-order="stroke">영업판매</text></svg>