<svg xmlns="http://www.w3.org/2000/svg" viewBox="0 0 320 220"><defs><linearGradient id="bg" x1="0" y1="0" x2="0" y2="1"><stop stop-color="#163d67"/><stop offset="1" stop-color="#3d2114"/></linearGradient></defs><rect width="320" height="220" rx="24" fill="url(#bg)"/><rect x="42" y="46" width="236" height="96" rx="18" fill="#3a2218" stroke="#f3c16b" stroke-width="8"/><rect x="70" y="66" width="180" height="46" rx="9" fill="#111"/><text x="95" y="101" font-size="36" font-weight="900" fill="#ffd34a">12,450</text><path d="M82 154h156" stroke="#f5d86a" stroke-width="14" stroke-linecap="round"/><circle cx="164" cy="154" r="18" fill="#e84233" stroke="#fff" stroke-width="6"/><g transform="translate(24 142)"><circle cx="30" cy="28" r="24" fill="#ffd2a2" stroke="#2b160c" stroke-width="5"/><path d="M8 20q22-22 44 0v12H8z" fill="#fff" stroke="#2b160c" stroke-width="5"/><circle cx="23" cy="29" r="3"/><circle cx="37" cy="29" r="3"/></g><g transform="translate(246 142)"><ellipse cx="28" cy="28" rx="25" ry="22" fill="#b87533" stroke="#2b160c" stroke-width="5"/><circle cx="18" cy="25" r="3"/><circle cx="38" cy="25" r="3"/><ellipse cx="28" cy="35" rx="10" ry="7" fill="#e7a060"/></g><text x="18" y="36" font-size="28" font-weight="900" fill="#fff" stroke="#06192a" stroke-width="6" paint-order="stroke">입찰전쟁</text><text x="117" y="187" font-size="34" font-weight="900" fill="#fff" stroke="#7b1811" stroke-width="7" paint-order="stroke">BID!</text></svg>