<svg xmlns="http://www.w3.org/2000/svg" viewBox="0 0 320 220"><defs><linearGradient id="b" x1="0" y1="0" x2="0" y2="1"><stop stop-color="#4a1830"/><stop offset="1" stop-color="#191017"/></linearGradient><linearGradient id="m" x1="0" y1="0" x2="1" y2="1"><stop stop-color="#ff9b8b"/><stop offset="1" stop-color="#b7222f"/></linearGradient></defs><rect width="320" height="220" rx="24" fill="url(#b)"/><path d="M0 166h320v54H0z" fill="#35231b"/><g stroke="#5b3a2a" stroke-width="4"><path d="M0 180h320M25 166v54M75 166v54M125 166v54M175 166v54M225 166v54M275 166v54"/></g><g transform="translate(74 63) rotate(-14)"><rect width="84" height="58" rx="16" fill="url(#m)" stroke="#f8d6c9" stroke-width="5"/><ellipse cx="38" cy="28" rx="21" ry="15" fill="#ffd2c3" opacity=".9"/></g><g transform="translate(177 39) rotate(11)"><rect width="66" height="52" rx="13" fill="url(#m)" stroke="#f8d6c9" stroke-width="5"/><ellipse cx="30" cy="25" rx="15" ry="11" fill="#ffd2c3" opacity=".9"/></g><path d="M48 155C119 100 199 76 283 35" stroke="#9cecff" stroke-width="16" stroke-linecap="round" fill="none" opacity=".75"/><path d="M53 149C125 103 206 70 285 26" stroke="#fff" stroke-width="5" stroke-linecap="round" fill="none"/><text x="18" y="36" font-size="28" font-weight="900" fill="#fff" stroke="#1f0710" stroke-width="6" paint-order="stroke">도축정형</text><text x="195" y="165" font-size="34" font-weight="900" fill="#ffd34a" stroke="#3b130b" stroke-width="7" paint-order="stroke">콤보!</text></svg>